<svg width="249" height="99" viewBox="0 0 249 99" fill="none" xmlns="http://www.w3.org/2000/svg">
<g clip-path="url(#clip0_74_95)">
<g filter="url(#filter0_f_74_95)">
<path fill-rule="evenodd" clip-rule="evenodd" d="M67.5542 31.5596C67.5542 43.2494 54.1204 58.4231 43.9999 66.705C32.4809 66.5465 36.9495 66.4988 23.8578 66.8792C13.8883 58.6219 0.904236 43.2921 0.904236 31.5596C0.904236 14.6521 15.8334 0.930542 34.2277 0.930542C52.6185 0.930542 67.5542 14.6521 67.5542 31.5596Z" fill="url(#paint0_linear_74_95)"/>
</g>
<g filter="url(#filter1_f_74_95)">
<path fill-rule="evenodd" clip-rule="evenodd" d="M57.6062 31.5586C57.6062 43.1952 48.2838 58.284 41.2058 66.5921C32.5771 66.5961 36.1206 66.5492 26.8498 66.711C19.8832 58.4163 10.9099 43.2127 10.9099 31.5586C10.9099 14.6478 21.3702 0.923065 34.2586 0.923065C45.1888 0.923219 54.3722 10.7948 56.9154 24.1084C57.3667 26.4936 57.6062 28.9896 57.6062 31.5586Z" fill="url(#paint1_linear_74_95)"/>
<path fill-rule="evenodd" clip-rule="evenodd" d="M57.6062 31.5586C57.6062 43.1952 48.2838 58.284 41.2058 66.5921C32.5771 66.5961 36.1206 66.5492 26.8498 66.711C19.8832 58.4163 10.9099 43.2127 10.9099 31.5586C10.9099 14.6478 21.3702 0.923065 34.2586 0.923065C45.1888 0.923219 54.3722 10.7948 56.9154 24.1084C57.3667 26.4936 57.6062 28.9896 57.6062 31.5586Z" stroke="#7D4CFF" stroke-width="0.0563"/>
</g>
<g filter="url(#filter2_f_74_95)">
<path fill-rule="evenodd" clip-rule="evenodd" d="M42.8817 31.5587C42.8817 43.1675 39.3592 58.216 36.6808 66.5216C31.4593 66.5548 36.8172 66.52 31.2012 66.5716C28.567 58.2642 25.1967 43.1525 25.1967 31.5587C25.1967 14.6661 29.1578 0.95636 34.0392 0.95636C38.9197 0.955975 42.8817 14.6661 42.8817 31.5587Z" fill="url(#paint2_linear_74_95)"/>
<path fill-rule="evenodd" clip-rule="evenodd" d="M42.8817 31.5587C42.8817 43.1675 39.3592 58.216 36.6808 66.5216C31.4593 66.5548 36.8172 66.52 31.2012 66.5716C28.567 58.2642 25.1967 43.1525 25.1967 31.5587C25.1967 14.6661 29.1578 0.95636 34.0392 0.95636C38.9197 0.955975 42.8817 14.6661 42.8817 31.5587Z" stroke="#7D4CFF" stroke-width="0.0703705"/>
</g>
<path d="M24.481 66.8671C26.2168 73.1654 27.5879 79.6396 28.5101 86.1427" stroke="#7D4CFF" stroke-width="0.2"/>
<path d="M29.7108 66.8652L31.8769 86.0915" stroke="#7D4CFF" stroke-width="0.2"/>
<path d="M37.1656 66.8875L36.2314 86.0785" stroke="#7D4CFF" stroke-width="0.2"/>
<path d="M43.0679 66.8688C41.3948 73.426 40.385 79.7531 39.7252 86.1054" stroke="#7D4CFF" stroke-width="0.2"/>
<path fill-rule="evenodd" clip-rule="evenodd" d="M24.055 67.2246L23.4355 66.4527L44.1919 66.4748L43.7306 67.3842L24.055 67.2246Z" fill="#7D4CFF"/>
<path d="M25.66 85.5385H42.7985V95.1538C42.7985 97.2781 41.0934 99 38.99 99H29.4685C27.3651 99 25.66 97.2781 25.66 95.1538V85.5385Z" fill="url(#paint3_linear_74_95)"/>
<path d="M44.3219 85.5385H24.1365C23.9262 85.5385 23.7557 85.7107 23.7557 85.9231V87.0769C23.7557 87.2893 23.9262 87.4615 24.1365 87.4615H44.3219C44.5323 87.4615 44.7028 87.2893 44.7028 87.0769V85.9231C44.7028 85.7107 44.5323 85.5385 44.3219 85.5385Z" fill="#7D4CFF"/>
<path d="M92.535 63.495C90.615 63.495 88.695 63.285 86.775 62.865C84.855 62.445 83.19 61.83 81.78 61.02C80.94 60.57 80.415 59.97 80.205 59.22C79.995 58.44 80.04 57.69 80.34 56.97C80.64 56.25 81.12 55.74 81.78 55.44C82.44 55.14 83.235 55.215 84.165 55.665C85.365 56.355 86.7 56.865 88.17 57.195C89.64 57.525 91.095 57.69 92.535 57.69C94.695 57.69 96.24 57.36 97.17 56.7C98.13 56.01 98.61 55.155 98.61 54.135C98.61 53.265 98.28 52.575 97.62 52.065C96.96 51.555 95.805 51.12 94.155 50.76L89.07 49.68C83.4 48.48 80.565 45.54 80.565 40.86C80.565 38.85 81.105 37.095 82.185 35.595C83.265 34.065 84.765 32.88 86.685 32.04C88.635 31.2 90.885 30.78 93.435 30.78C95.115 30.78 96.765 30.99 98.385 31.41C100.005 31.8 101.43 32.385 102.66 33.165C103.41 33.615 103.875 34.2 104.055 34.92C104.235 35.64 104.175 36.33 103.875 36.99C103.605 37.65 103.125 38.115 102.435 38.385C101.775 38.655 100.95 38.55 99.96 38.07C98.97 37.56 97.92 37.185 96.81 36.945C95.7 36.705 94.56 36.585 93.39 36.585C91.5 36.585 90.03 36.96 88.98 37.71C87.96 38.43 87.45 39.375 87.45 40.545C87.45 41.415 87.765 42.12 88.395 42.66C89.025 43.2 90.12 43.635 91.68 43.965L96.765 45.045C102.585 46.305 105.495 49.155 105.495 53.595C105.495 55.575 104.955 57.315 103.875 58.815C102.825 60.285 101.325 61.44 99.375 62.28C97.455 63.09 95.175 63.495 92.535 63.495ZM110.608 63.405C108.328 63.405 107.188 62.25 107.188 59.94V34.335C107.188 32.025 108.328 30.87 110.608 30.87C112.858 30.87 113.983 32.025 113.983 34.335V50.04H114.073L120.598 42.795C121.258 42.045 121.858 41.49 122.398 41.13C122.938 40.74 123.688 40.545 124.648 40.545C125.578 40.545 126.298 40.785 126.808 41.265C127.318 41.715 127.573 42.3 127.573 43.02C127.573 43.71 127.273 44.385 126.673 45.045L120.913 51.48L127.438 58.995C128.008 59.715 128.248 60.42 128.158 61.11C128.098 61.77 127.798 62.325 127.258 62.775C126.718 63.195 126.028 63.405 125.188 63.405C124.138 63.405 123.313 63.21 122.713 62.82C122.143 62.43 121.528 61.83 120.868 61.02L114.073 53.46H113.983V59.94C113.983 62.25 112.858 63.405 110.608 63.405ZM135.226 71.505C134.026 71.505 133.171 71.055 132.661 70.155C132.181 69.285 132.211 68.265 132.751 67.095L135.136 61.785L127.801 44.955C127.321 43.785 127.321 42.765 127.801 41.895C128.311 40.995 129.316 40.545 130.816 40.545C131.626 40.545 132.271 40.74 132.751 41.13C133.261 41.49 133.726 42.195 134.146 43.245L138.736 54.945L143.506 43.2C143.926 42.18 144.391 41.49 144.901 41.13C145.441 40.74 146.161 40.545 147.061 40.545C148.201 40.545 148.996 40.995 149.446 41.895C149.926 42.765 149.911 43.77 149.401 44.91L138.826 68.895C138.376 69.915 137.866 70.605 137.296 70.965C136.756 71.325 136.066 71.505 135.226 71.505ZM155.17 63C152.74 63 151.525 61.785 151.525 59.355V34.92C151.525 32.49 152.74 31.275 155.17 31.275H163.945C169.345 31.275 173.53 32.655 176.5 35.415C179.47 38.145 180.955 42.045 180.955 47.115C180.955 52.185 179.47 56.1 176.5 58.86C173.53 61.62 169.345 63 163.945 63H155.17ZM158.5 57.285H163.54C170.29 57.285 173.665 53.895 173.665 47.115C173.665 40.365 170.29 36.99 163.54 36.99H158.5V57.285ZM187.049 63.405C184.709 63.405 183.539 62.25 183.539 59.94V43.965C183.539 41.685 184.649 40.545 186.869 40.545C189.089 40.545 190.199 41.685 190.199 43.965V44.775C191.279 42.105 193.514 40.665 196.904 40.455C197.654 40.395 198.224 40.59 198.614 41.04C199.034 41.46 199.259 42.165 199.289 43.155C199.349 44.085 199.154 44.82 198.704 45.36C198.284 45.9 197.564 46.23 196.544 46.35L195.509 46.44C192.149 46.77 190.469 48.48 190.469 51.57V59.94C190.469 62.25 189.329 63.405 187.049 63.405ZM210.058 63.495C207.688 63.495 205.618 63.03 203.848 62.1C202.108 61.14 200.758 59.805 199.798 58.095C198.838 56.355 198.358 54.3 198.358 51.93C198.358 49.59 198.838 47.565 199.798 45.855C200.758 44.115 202.108 42.78 203.848 41.85C205.618 40.92 207.688 40.455 210.058 40.455C212.428 40.455 214.483 40.92 216.223 41.85C217.993 42.78 219.358 44.115 220.318 45.855C221.308 47.565 221.803 49.59 221.803 51.93C221.803 54.3 221.308 56.355 220.318 58.095C219.358 59.805 217.993 61.14 216.223 62.1C214.483 63.03 212.428 63.495 210.058 63.495ZM210.058 58.41C211.498 58.41 212.668 57.885 213.568 56.835C214.498 55.785 214.963 54.15 214.963 51.93C214.963 49.74 214.498 48.135 213.568 47.115C212.668 46.065 211.498 45.54 210.058 45.54C208.618 45.54 207.448 46.065 206.548 47.115C205.648 48.135 205.198 49.74 205.198 51.93C205.198 54.15 205.648 55.785 206.548 56.835C207.448 57.885 208.618 58.41 210.058 58.41ZM227.107 71.505C224.827 71.505 223.687 70.35 223.687 68.04V43.965C223.687 41.685 224.797 40.545 227.017 40.545C229.267 40.545 230.392 41.685 230.392 43.965V44.1C231.022 42.99 231.952 42.105 233.182 41.445C234.412 40.785 235.792 40.455 237.322 40.455C239.242 40.455 240.922 40.92 242.362 41.85C243.832 42.78 244.972 44.1 245.782 45.81C246.592 47.52 246.997 49.56 246.997 51.93C246.997 54.3 246.592 56.355 245.782 58.095C244.972 59.805 243.832 61.14 242.362 62.1C240.922 63.03 239.242 63.495 237.322 63.495C235.852 63.495 234.502 63.18 233.272 62.55C232.072 61.92 231.142 61.08 230.482 60.03V68.04C230.482 70.35 229.357 71.505 227.107 71.505ZM235.297 58.41C236.737 58.41 237.907 57.885 238.807 56.835C239.707 55.785 240.157 54.15 240.157 51.93C240.157 49.74 239.707 48.135 238.807 47.115C237.907 46.065 236.737 45.54 235.297 45.54C233.827 45.54 232.642 46.065 231.742 47.115C230.842 48.135 230.392 49.74 230.392 51.93C230.392 54.15 230.842 55.785 231.742 56.835C232.642 57.885 233.827 58.41 235.297 58.41Z" fill="#7E4DFF"/>
</g>
<defs>
<filter id="filter0_f_74_95" x="-0.0957642" y="-0.069458" width="68.65" height="67.9487" filterUnits="userSpaceOnUse" color-interpolation-filters="sRGB">
<feFlood flood-opacity="0" result="BackgroundImageFix"/>
<feBlend mode="normal" in="SourceGraphic" in2="BackgroundImageFix" result="shape"/>
<feGaussianBlur stdDeviation="0.5" result="effect1_foregroundBlur_74_95"/>
</filter>
<filter id="filter1_f_74_95" x="9.88177" y="-0.105072" width="48.7526" height="67.8445" filterUnits="userSpaceOnUse" color-interpolation-filters="sRGB">
<feFlood flood-opacity="0" result="BackgroundImageFix"/>
<feBlend mode="normal" in="SourceGraphic" in2="BackgroundImageFix" result="shape"/>
<feGaussianBlur stdDeviation="0.5" result="effect1_foregroundBlur_74_95"/>
</filter>
<filter id="filter2_f_74_95" x="24.1616" y="-0.0788269" width="19.7553" height="67.6859" filterUnits="userSpaceOnUse" color-interpolation-filters="sRGB">
<feFlood flood-opacity="0" result="BackgroundImageFix"/>
<feBlend mode="normal" in="SourceGraphic" in2="BackgroundImageFix" result="shape"/>
<feGaussianBlur stdDeviation="0.5" result="effect1_foregroundBlur_74_95"/>
</filter>
<linearGradient id="paint0_linear_74_95" x1="34.2292" y1="0.930542" x2="34.2292" y2="66.8792" gradientUnits="userSpaceOnUse">
<stop offset="0.683402" stop-color="#7E4DFF"/>
<stop offset="1" stop-color="#E1DCEF"/>
</linearGradient>
<linearGradient id="paint1_linear_74_95" x1="34.259" y1="0.900194" x2="34.259" y2="66.7352" gradientUnits="userSpaceOnUse">
<stop stop-color="white"/>
<stop offset="1" stop-color="#DDD6CE"/>
</linearGradient>
<linearGradient id="paint2_linear_74_95" x1="34.0392" y1="0.95636" x2="34.0392" y2="66.5716" gradientUnits="userSpaceOnUse">
<stop offset="0.683402" stop-color="#7E4DFF"/>
<stop offset="1" stop-color="#E1DCEF"/>
</linearGradient>
<linearGradient id="paint3_linear_74_95" x1="34.2292" y1="85.5385" x2="34.2292" y2="99" gradientUnits="userSpaceOnUse">
<stop offset="0.830986" stop-color="#7E4DFF"/>
<stop offset="1" stop-color="#A692DC"/>
</linearGradient>
<clipPath id="clip0_74_95">
<rect width="249" height="99" fill="white"/>
</clipPath>
</defs>
</svg>
